<?xml version="1.0" encoding="UTF-8"?>
<svg width="109px" height="24px" viewBox="0 0 109 24" version="1.1" xmlns="http://www.w3.org/2000/svg" xmlns:xlink="http://www.w3.org/1999/xlink">
    <!-- Generator: Sketch 49.2 (51160) - http://www.bohemiancoding.com/sketch -->
    <title>Fill 1</title>
    <desc>Created with Sketch.</desc>
    <defs></defs>
    <g id="Page-2" stroke="none" stroke-width="1" fill="none" fill-rule="evenodd">
        <g id="Desktop-HD" transform="translate(-48.000000, -50.000000)" fill="#8650C4">
            <path d="M96.5961071,62 C96.5961071,57.9834576 92.9395563,54.7271864 88.4286941,54.7271864 C83.9178319,54.7271864 80.2612812,57.9834576 80.2612812,62 C80.2612812,66.0165424 83.9178319,69.2728136 88.4286941,69.2728136 C92.9395563,69.2728136 96.5961071,66.0165424 96.5961071,62 Z M101.904925,62 C101.904925,68.6272542 95.8716575,74 88.4286941,74 C80.9857307,74 74.9524627,68.6272542 74.9524627,62 C74.9524627,55.3727458 80.9857307,50 88.4286941,50 C95.8716575,50 101.904925,55.3727458 101.904925,62 Z M131.323675,52.715661 C131.814128,52.2267119 131.945895,50.7627119 130.899241,50.775322 C129.426009,50.775322 128.21405,50.775322 127.263367,50.775322 C126.381531,50.775322 126.18042,50.9971313 125.878418,51.3208618 L117.434036,60.3293559 L108.588728,50.9278644 C108.294293,50.6016271 108.104133,50.6547241 107.871765,50.6524746 L103.938203,50.7289492 C102.910889,50.775322 103.277832,52.0665894 103.836519,52.715661 L114.642823,64.2934237 C114.741648,64.3914576 114.854359,64.464678 114.972786,64.5232542 L114.972786,72.3415593 C114.972786,73.032678 115.535521,73.5932203 116.229343,73.5932203 L118.616678,73.5932203 C119.310499,73.5932203 119.873234,73.032678 119.873234,72.3415593 L119.873234,64.5350508 C120.000237,64.4752542 120.120298,64.3979661 120.225249,64.2934237 L131.323675,52.715661 Z M147.952391,64.2372881 L143.806204,56.1025085 L139.660425,64.2372881 L147.952391,64.2372881 Z M154.183311,73.6977627 C153.564629,74.0101695 152.807918,73.7644746 152.493881,73.1477966 L150.383013,69.1186441 C150.234863,69.1186441 138.529053,69.1186441 137.398052,69.1186441 L135.118935,73.1477966 C134.804898,73.7644746 134.048596,74.0101695 133.429506,73.6977627 L131.301078,72.6210169 C130.682397,72.3082034 130.435332,71.5548475 130.749778,70.9385763 L140.515145,51.7776271 C140.645824,51.5209492 140.855318,51.3330169 141.09789,51.2187119 C141.28084,51.1149831 141.489517,51.0507119 141.714938,51.0507119 L145.965668,51.0507119 C146.497367,51.0507119 146.949841,51.3814237 147.1332,51.8463729 L156.863447,70.9385763 C157.177893,71.5548475 156.930828,72.3082034 156.311739,72.6210169 L154.183311,73.6977627 Z M70.8989757,55.2197966 L55.6271386,69.1186441 L69.6121998,69.1186441 C70.3060215,69.1186441 70.8687563,69.6791864 70.8687563,70.3703051 L70.8687563,72.3415593 C70.8687563,73.032678 70.3060215,73.5932203 69.6121998,73.5932203 L49.2565565,73.5932203 C48.5627348,73.5932203 48,73.032678 48,72.3415593 L48,70.3703051 C48,69.9041356 48.2468872,69.4705811 48.6208496,69.1186441 L64.0195638,55.2881356 L49.6649271,55.2881356 C48.9711054,55.2881356 48.4083706,54.7275932 48.4083706,54.0364746 L48.4083706,52.0652203 C48.4083706,51.3741017 48.9711054,50.8135593 49.6649271,50.8135593 L70.0205704,50.8135593 C70.7143922,50.8135593 71.2771269,51.3741017 71.2771269,52.0652203 L71.2771269,54.0364746 C71.3637015,54.4591186 71.2383317,54.9106441 70.8989757,55.2197966 Z" id="Fill-1"></path>
        </g>
    </g>
</svg>